<svg width="243" height="329" viewBox="0 0 243 329" fill="none" xmlns="http://www.w3.org/2000/svg">
<path d="M150.516 71.2919L95.3031 99.3366M150.516 71.2919L165.415 81.8087L181.19 71.2919V55.5168L165.415 45L150.516 55.5168V71.2919ZM95.3031 99.3366V116.865M95.3031 99.3366L78.6515 89.6962L62 99.3366V116.865L78.6515 126.505L95.3031 116.865M95.3031 116.865L149.64 144.033M149.64 144.033L164.538 133.516C165.941 132.815 176.224 140.235 181.19 144.033V159.808L165.415 170.325L149.64 159.808V144.033Z" stroke="#33343F" stroke-width="3"/>
<rect x="1.5" y="1.5" width="240" height="240" rx="18.5" stroke="#33343F" stroke-width="3"/>
<rect x="120" y="303.75" width="121.5" height="3" transform="rotate(-90 120 303.75)" fill="#33343F"/>
<mask id="path-4-inside-1_487_222" fill="white">
<rect x="108" y="302" width="26.73" height="26.73" rx="1"/>
</mask>
<rect x="108" y="302" width="26.73" height="26.73" rx="1" stroke="#33343F" stroke-width="6" mask="url(#path-4-inside-1_487_222)"/>
</svg>
