<svg width="243" height="329" viewBox="0 0 243 329" fill="none" xmlns="http://www.w3.org/2000/svg">
<path d="M155.558 103.448L181.19 88.069L165.811 65L140.819 77.8161M155.558 103.448L154.242 111.779M155.558 103.448L140.819 77.8161M140.819 77.8161L106.856 82.3018M106.856 82.3018L99.8076 80.3794M106.856 82.3018L104.934 97.6811L115.828 97.0403L124.799 91.9139L154.242 111.779M99.8076 80.3794L74.8161 67.5632L62 87.4282L82.5058 104.56M99.8076 80.3794L82.5058 104.56M154.242 111.779L153.635 115.624L133.77 122.452M82.5058 104.56L112.624 129.721L124.799 125.536M112.624 113.701L124.799 125.536M124.799 125.536L133.77 122.452M124.799 110.497L133.77 122.452" stroke="#33343F" stroke-width="3"/>
<rect x="1.5" y="1.5" width="240" height="240" rx="18.5" stroke="#33343F" stroke-width="3"/>
<rect x="120" y="303.75" width="121.5" height="3" transform="rotate(-90 120 303.75)" fill="#33343F"/>
<mask id="path-4-inside-1_487_220" fill="white">
<rect x="108" y="302" width="26.73" height="26.73" rx="1"/>
</mask>
<rect x="108" y="302" width="26.73" height="26.73" rx="1" stroke="#33343F" stroke-width="6" mask="url(#path-4-inside-1_487_220)"/>
</svg>
